/* XPM */
static char * 1_xpm[] = {
"14 14 6 1",
" 	c None",
".	c #CCAF4D",
"+	c #A68E3F",
"@	c #B29943",
"#	c #FFFFFF",
"$	c #B81616",
"..............",
"..............",
"..............",
"..+....@......",
"..........#...",
"..............",
"..............",
"..............",
"...$..........",
"..............",
"..............",
"............+.",
"..@...........",
".............."};
