/* XPM */
static char * 10_xpm[] = {
"14 14 8 1",
" 	c None",
".	c #BFA448",
"+	c #A68E3F",
"@	c #B81616",
"#	c #FFFFFF",
"$	c #186700",
"%	c #B29943",
"&	c #818181",
"......+.......",
"..............",
"..............",
".........@....",
"..............",
"......#.......",
"..............",
"..$...........",
"............%.",
"..............",
"..............",
"..%...........",
"..........&...",
".............."};
