/* XPM */
static char * 11_xpm[] = {
"14 14 8 1",
" 	c None",
".	c #CCAF4D",
"+	c #B81616",
"@	c #C6C1B0",
"#	c #B29943",
"$	c #A68E3F",
"%	c #FFFFFF",
"&	c #3F9C22",
"..............",
".....+......@.",
"..#...........",
"..............",
"..............",
"..............",
".............$",
"..............",
".%.......&....",
"..............",
"..............",
"......#.......",
"..............",
"$............."};
