/* XPM */
static char * 12_xpm[] = {
"14 14 8 1",
" 	c None",
".	c #BFA448",
"+	c #002708",
"@	c #B29943",
"#	c #A68E3F",
"$	c #C6C1B0",
"%	c #FFFFFF",
"&	c #B81616",
"..............",
"............+.",
".........@....",
"..+...........",
"..............",
"..............",
"..............",
".#......$....%",
"..............",
"..............",
"..............",
"..............",
"......&....@..",
".............."};
