/* XPM */
static char * 13_xpm[] = {
"14 14 8 1",
" 	c None",
".	c #CCAF4D",
"+	c #A68E3F",
"@	c #188551",
"#	c #FFFFFF",
"$	c #B81616",
"%	c #604A20",
"&	c #B29943",
".......+......",
"..............",
"..@...........",
"..............",
"..............",
"............@.",
"......#$......",
"..............",
"......%.......",
"..............",
"..&.........&.",
"..............",
"..............",
".............."};
