/* XPM */
static char * 14_xpm[] = {
"14 14 9 1",
" 	c None",
".	c #B81616",
"+	c #BFA448",
"@	c #C6C1B0",
"#	c #B29943",
"$	c #A68E3F",
"%	c #FFFFFF",
"&	c #186700",
"*	c #188551",
".+++++++++++++",
"++++++++++++++",
"++++++++++++++",
"+++++@++++++++",
"++++++++++#+++",
"++++++++++++++",
"+$++++++++++++",
"++++++++++++++",
"+++++++#++++++",
"+%++++++++++++",
"+++++++++++&++",
"++++++++++++++",
"++++++++++++++",
"+*++++++++++++"};
