/* XPM */
static char * 15_xpm[] = {
"14 14 8 1",
" 	c None",
".	c #BFA448",
"+	c #A68E3F",
"@	c #002708",
"#	c #B29943",
"$	c #3F9C22",
"%	c #FFFFFF",
"&	c #B81616",
".............+",
".........@....",
"..............",
"..#...........",
"..............",
"..............",
"..............",
"....$.........",
"..............",
"..............",
"......#.......",
"..............",
"..............",
".%.....@....&."};
