/* XPM */
static char * 16_xpm[] = {
"14 14 9 1",
" 	c None",
".	c #CCAF4D",
"+	c #FFFFFF",
"@	c #818181",
"#	c #002708",
"$	c #B29943",
"%	c #B81616",
"&	c #C6C1B0",
"*	c #A68E3F",
".............+",
"..............",
"....@.........",
"..........#...",
".....$........",
"..............",
"..............",
"........%...&.",
"..............",
"..............",
"...........*..",
"&....#........",
"..............",
"$............."};
