/* XPM */
static char * 17_xpm[] = {
"14 14 9 1",
" 	c None",
".	c #CCAF4D",
"+	c #002708",
"@	c #A68E3F",
"#	c #B29943",
"$	c #B81616",
"%	c #C6C1B0",
"&	c #FFFFFF",
"*	c #188551",
"..............",
"......+..@....",
"..............",
"..............",
"...#........$.",
"..............",
"....%.........",
"..............",
".&............",
"...........*..",
".........#....",
"...@..........",
"..............",
"......%......."};
