/* XPM */
static char * 18_xpm[] = {
"14 14 9 1",
" 	c None",
".	c #BFA448",
"+	c #A68E3F",
"@	c #002708",
"#	c #B29943",
"$	c #FFFFFF",
"%	c #B81616",
"&	c #188551",
"*	c #604A20",
"..............",
".+............",
"..............",
"..@....#......",
"..............",
"..............",
"....$....%..&.",
"..............",
"..............",
"..............",
"...*..#.......",
"..............",
"...........+..",
".............."};
