/* XPM */
static char * 19_xpm[] = {
"14 14 10 1",
" 	c None",
".	c #BFA448",
"+	c #B29943",
"@	c #188551",
"#	c #FFFFFF",
"$	c #C6C1B0",
"%	c #B81616",
"&	c #A68E3F",
"*	c #186700",
"=	c #002708",
"..............",
"..............",
"..+...........",
"...@..........",
"..............",
".......#...$..",
".......%......",
"..............",
"......&.......",
"..............",
"..............",
"..*........+..",
"............=.",
".............."};
