/* XPM */
static char * 2_xpm[] = {
"14 14 6 1",
" 	c None",
".	c #BFA448",
"+	c #A68E3F",
"@	c #B29943",
"#	c #B81616",
"$	c #FFFFFF",
"..............",
".+............",
"..............",
"........@.....",
".#............",
"............@.",
"..............",
"..............",
"..............",
"..............",
"...@..........",
"...........$..",
"..............",
".............."};
