/* XPM */
static char * 20_xpm[] = {
"14 14 11 1",
" 	c None",
".	c #CCAF4D",
"+	c #002708",
"@	c #B29943",
"#	c #A68E3F",
"$	c #C6C1B0",
"%	c #818181",
"&	c #188551",
"*	c #B81616",
"=	c #FFFFFF",
"-	c #604A20",
"..............",
"......+....@..",
"..#.......$...",
"..............",
"..%...&.......",
".............@",
"..............",
".....*..=..+..",
"...%..........",
"..............",
".......&......",
"..........-...",
".$@...........",
".............."};
