/* XPM */
static char * 3_xpm[] = {
"14 14 6 1",
" 	c None",
".	c #CCAF4D",
"+	c #A68E3F",
"@	c #FFFFFF",
"#	c #B29943",
"$	c #B81616",
"..............",
"..............",
".....+.....@..",
"..............",
"..............",
"..............",
"............#.",
".#............",
"..............",
"..............",
"..............",
"..$...........",
"...........#..",
".............."};
