/* XPM */
static char * 4_xpm[] = {
"14 14 7 1",
" 	c None",
".	c #BFA448",
"+	c #A68E3F",
"@	c #B81616",
"#	c #B29943",
"$	c #818181",
"%	c #FFFFFF",
"..............",
"............+.",
"..............",
".......@......",
"...#..........",
"..............",
".......$......",
"..............",
"..............",
"..............",
".......%......",
"............#.",
"..#...........",
".............."};
