/* XPM */
static char * 5_xpm[] = {
"14 14 7 1",
" 	c None",
".	c #BFA448",
"+	c #B29943",
"@	c #FFFFFF",
"#	c #604A20",
"$	c #B81616",
"%	c #A68E3F",
"..............",
"..............",
".......+......",
"..............",
"..............",
"...@...#......",
"..............",
"..............",
"..............",
"..............",
".......$......",
"....%.........",
".............+",
".............."};
