/* XPM */
static char * 6_xpm[] = {
"14 14 8 1",
" 	c None",
".	c #CCAF4D",
"+	c #A68E3F",
"@	c #818181",
"#	c #B29943",
"$	c #B81616",
"%	c #FFFFFF",
"&	c #604A20",
"...+..........",
"..............",
"......@.......",
"..............",
"..............",
".......#......",
"..............",
"$............%",
"..............",
"..............",
"........&.....",
"...#..........",
".............+",
".............."};
