/* XPM */
static char * 7_xpm[] = {
"14 14 8 1",
" 	c None",
".	c #CCAF4D",
"+	c #B29943",
"@	c #604A20",
"#	c #A68E3F",
"$	c #FFFFFF",
"%	c #818181",
"&	c #B81616",
"..............",
"..............",
".........+....",
"......@.......",
"#.............",
"..............",
"..............",
"..............",
".....$........",
"....%.........",
"..&...........",
"...........@..",
"..............",
"...#.........."};
