/* XPM */
static char * 8_xpm[] = {
"14 14 8 1",
" 	c None",
".	c #BFA448",
"+	c #A68E3F",
"@	c #604A20",
"#	c #FFFFFF",
"$	c #B81616",
"%	c #186700",
"&	c #B29943",
"..............",
"...........+..",
"..............",
"..............",
"..............",
"...@....#.....",
"..............",
"..............",
"..............",
"......$....%..",
"..............",
"..&...........",
"..............",
".............."};
