/* XPM */
static char * 9_xpm[] = {
"14 14 8 1",
" 	c None",
".	c #CCAF4D",
"+	c #B29943",
"@	c #FFFFFF",
"#	c #186700",
"$	c #3F9C22",
"%	c #A68E3F",
"&	c #B81616",
"..............",
"..............",
"..............",
"..........+...",
"...@..........",
"..............",
"..............",
"...#......$...",
"..............",
"..............",
"..............",
"...%....&.....",
"..............",
".............."};
